<svg width="20" height="10" viewBox="0 0 20 10" fill="none" xmlns="http://www.w3.org/2000/svg">
<path d="M0.88834 9.81584C0.400987 9.81584 0 9.45365 0 8.76611V1.22775C0 0.540209 0.400987 0.171885 0.88834 0.171885C1.14127 0.171885 1.34485 0.251688 1.59778 0.399018L7.88402 4.08226C8.21715 4.2787 8.40839 4.50583 8.47625 4.75752V1.22775C8.47625 0.540209 8.88341 0.171885 9.36459 0.171885C9.61752 0.171885 9.8211 0.251688 10.074 0.399018L16.3603 4.08226C16.6996 4.2787 16.8846 4.50583 16.9525 4.75752V0.816452C16.9525 0.282382 17.2363 0 17.7791 0H19.1795C19.7224 0 20 0.257827 20 0.816452V9.17741C20 9.71762 19.7224 10 19.1795 10H17.7791C17.2363 10 16.9525 9.71762 16.9525 9.17741V5.2302C16.8846 5.48803 16.6934 5.70902 16.3603 5.9116L10.074 9.58871C9.82727 9.73603 9.61752 9.81584 9.36459 9.81584C8.88341 9.81584 8.47625 9.45365 8.47625 8.76611V5.2302C8.40839 5.48803 8.21715 5.70902 7.88402 5.9116L1.59778 9.58871C1.34485 9.73603 1.14127 9.81584 0.88834 9.81584Z" fill="black"/>
</svg>
