<svg width="77" height="77" viewBox="0 0 77 77" fill="none" xmlns="http://www.w3.org/2000/svg">
<path d="M0 38.5C0 21.0985 0 12.3977 5.04983 6.71495C5.57169 6.12769 6.12769 5.57169 6.71495 5.04983C12.3977 0 21.0985 0 38.5 0V0C55.9015 0 64.6023 0 70.285 5.04983C70.8723 5.57169 71.4283 6.12769 71.9502 6.71495C77 12.3977 77 21.0985 77 38.5V38.5C77 55.9015 77 64.6023 71.9502 70.285C71.4283 70.8723 70.8723 71.4283 70.285 71.9502C64.6023 77 55.9015 77 38.5 77V77C21.0985 77 12.3977 77 6.71495 71.9502C6.12769 71.4283 5.57169 70.8723 5.04983 70.285C0 64.6023 0 55.9015 0 38.5V38.5Z" fill="#FDE49D"/>
<path d="M50.2118 37.8557C54.102 39.6352 56.0471 42.2046 56.0471 45.5641C56.0471 48.5707 54.8392 51.0634 52.4235 53.0423C49.2078 55.6808 44.8235 57 39.2706 57C35.1451 57 31.3255 56.233 27.8118 54.699C24.3765 53.1957 21.7569 51.1018 19.9529 48.4173C18.651 46.4691 18 44.8738 18 43.6312C18 43.1557 18.6275 42.7492 19.8824 42.4117C21.1529 44.1604 23.4118 45.6561 26.6588 46.8986C27.6471 45.6101 28.9804 43.7769 30.6588 41.3993C32.3373 39.0216 33.6471 37.1731 34.5882 35.8539C35.5294 34.5193 36.4706 33.2384 37.4118 32.0112C39.498 29.296 41.3098 27.2405 42.8471 25.8445C43.3176 25.3843 44.0314 25.369 44.9882 25.7985C45.2392 25.9059 45.4431 26.0286 45.6 26.1667C44.298 27.4552 42.5412 30.017 40.3294 33.852C41.7725 34.1895 43.0353 34.3582 44.1176 34.3582C45.2 34.3582 46.2745 34.2432 47.3412 34.0131C48.4078 33.7676 49.3804 33.4148 50.2588 32.9546C52.2824 31.9268 53.2941 30.6613 53.2941 29.158C53.2941 26.228 51.0118 24.2108 46.4471 23.1063C44.6588 22.6615 42.8706 22.4391 41.0824 22.4391C39.3098 22.4391 37.6392 22.5618 36.0706 22.8072C34.502 23.0373 33.1059 23.4055 31.8824 23.9117C29.1843 25.0315 27.8353 26.6192 27.8353 28.6748C27.8353 30.4082 28.4941 31.8655 29.8118 33.0466C28.3843 34.5346 27.2471 35.2786 26.4 35.2786C25.4275 35.2786 24.5176 34.7647 23.6706 33.7369C22.8078 32.6785 22.3765 31.5203 22.3765 30.2624C22.3765 29.0046 22.6431 27.9001 23.1765 26.949C23.7255 25.9979 24.4627 25.1542 25.3882 24.4179C26.3137 23.6663 27.3804 23.0143 28.5882 22.4621C29.8118 21.9098 31.1059 21.4496 32.4706 21.0815C35.1216 20.3605 37.5059 20 39.6235 20C41.7412 20 43.5059 20.092 44.9176 20.2761C46.3451 20.4449 47.702 20.7133 48.9882 21.0815C50.2745 21.4496 51.4667 21.9098 52.5647 22.4621C53.6627 23.0143 54.6196 23.6663 55.4353 24.4179C57.1451 26.0133 58 27.9231 58 30.1474C58 31.9268 57.2392 33.5222 55.7176 34.9335C54.3529 36.2374 52.5176 37.2114 50.2118 37.8557ZM32.0941 48.4403C33.9294 48.7931 35.4118 48.9695 36.5412 48.9695C37.6706 48.9695 38.6275 48.9465 39.4118 48.9005C40.1961 48.8391 41.0431 48.6857 41.9529 48.4403C42.8784 48.1949 43.6706 47.8497 44.3294 47.4049C45.7725 46.4538 46.4941 45.1499 46.4941 43.4932C46.4941 41.8825 45.6549 40.5632 43.9765 39.5354C42.4392 38.5997 40.4549 38.0858 38.0235 37.9938C37.5059 38.9449 36.9882 39.8959 36.4706 40.847C35.9529 41.7981 35.4431 42.7262 34.9412 43.6312C33.8745 45.5334 32.9255 47.1364 32.0941 48.4403Z" fill="#874A0C"/>
</svg>
